<?xml version="1.0" encoding="UTF-8"?>
<svg id="Layer_1" data-name="Layer 1" xmlns="http://www.w3.org/2000/svg" viewBox="0 0 1920 1920">
  <rect x="0" y="0" width="1920" height="1920" rx="960" ry="960" style="fill: #0071bc;"/>
  <g>
    <path d="M960,299.02c15.61,0,31,4.12,44.51,11.93.07.04.14.08.21.12l500.48,285.99c27.36,15.85,44.38,45.32,44.41,76.95v571.99c-.03,31.63-17.05,61.1-44.41,76.95l-500.48,285.99c-.07.04-.14.08-.21.12-13.52,7.8-28.91,11.93-44.51,11.93s-31-4.12-44.51-11.93c-.07-.04-.14-.08-.21-.12l-500.48-285.99c-27.36-15.85-44.38-45.32-44.41-76.95v-571.99c.03-31.63,17.05-61.1,44.41-76.95l500.48-285.99c.07-.04.14-.08.21-.12,13.52-7.8,28.91-11.93,44.51-11.93M960,245.02c-24.69,0-49.39,6.39-71.51,19.16l-500.59,286.05c-44.21,25.52-71.46,72.67-71.51,123.72v572.1c.05,51.05,27.31,98.19,71.51,123.72l500.59,286.05c22.13,12.77,46.82,19.16,71.51,19.16s49.39-6.39,71.51-19.16l500.59-286.05c44.21-25.52,71.46-72.67,71.51-123.72v-572.1c-.05-51.05-27.31-98.19-71.51-123.72l-500.59-286.05c-22.13-12.77-46.82-19.16-71.51-19.16h0Z" style="fill: #fff;"/>
    <polyline points="636.52 445.39 958.32 631.32 1280.13 445.39" style="fill: none; stroke: #fff; stroke-linecap: round; stroke-linejoin: round; stroke-width: 54px;"/>
    <polyline points="668.51 1498.16 668.51 1127.01 346.7 941.08" style="fill: none; stroke: #fff; stroke-linecap: round; stroke-linejoin: round; stroke-width: 54px;"/>
    <polyline points="1568.53 941.08 1246.72 1127.01 1246.72 1498.16" style="fill: none; stroke: #fff; stroke-linecap: round; stroke-linejoin: round; stroke-width: 54px;"/>
  </g>
  <g>
    <path d="M725.71,932.69h-15.59v64.11h-12.33v-64.11h-9.62v-10.17h9.62v-5.29c0-8.31,2.15-14.39,6.44-18.23,4.29-3.84,11.18-5.76,20.67-5.76v10.3c-5.42,0-9.24,1.06-11.45,3.19-2.22,2.12-3.32,5.63-3.32,10.5v5.29h15.59v10.17Z" style="fill: #fff;"/>
    <path d="M805.96,922.52v74.28h-12.33v-10.98c-2.35,3.8-5.63,6.76-9.83,8.88-4.2,2.12-8.83,3.19-13.89,3.19-5.78,0-10.98-1.2-15.59-3.59-4.61-2.39-8.25-5.98-10.91-10.78-2.67-4.79-4-10.62-4-17.49v-43.51h12.2v41.88c0,7.32,1.85,12.94,5.56,16.88,3.7,3.93,8.76,5.9,15.18,5.9s11.79-2.03,15.59-6.1c3.8-4.07,5.69-9.98,5.69-17.76v-40.8h12.33Z" style="fill: #fff;"/>
    <path d="M884.98,929.37c5.6,5.47,8.4,13.35,8.4,23.65v43.78h-12.2v-42.02c0-7.41-1.85-13.08-5.56-17.01-3.71-3.93-8.77-5.9-15.18-5.9s-11.68,2.03-15.52,6.1c-3.84,4.07-5.76,9.99-5.76,17.76v41.07h-12.33v-74.28h12.33v10.57c2.44-3.8,5.76-6.73,9.96-8.81,4.2-2.08,8.83-3.12,13.89-3.12,9.03,0,16.35,2.73,21.96,8.2Z" style="fill: #fff;"/>
    <path d="M913.58,939.4c3.07-5.74,7.34-10.19,12.81-13.35,5.47-3.16,11.72-4.74,18.77-4.74,9.13,0,16.65,2.22,22.57,6.64,5.92,4.43,9.83,10.57,11.72,18.43h-13.28c-1.27-4.52-3.73-8.09-7.39-10.71-3.66-2.62-8.2-3.93-13.62-3.93-7.05,0-12.74,2.42-17.08,7.25-4.34,4.84-6.51,11.68-6.51,20.53s2.17,15.86,6.51,20.74c4.34,4.88,10.03,7.32,17.08,7.32,5.42,0,9.94-1.26,13.55-3.8,3.61-2.53,6.1-6.14,7.45-10.84h13.28c-1.99,7.59-5.96,13.67-11.93,18.23-5.96,4.56-13.42,6.85-22.37,6.85-7.05,0-13.31-1.58-18.77-4.74-5.47-3.16-9.74-7.63-12.81-13.42-3.07-5.78-4.61-12.56-4.61-20.33s1.54-14.39,4.61-20.13Z" style="fill: #fff;"/>
    <path d="M1010.9,932.69v43.78c0,3.62.77,6.17,2.3,7.66,1.54,1.49,4.2,2.24,8,2.24h9.08v10.44h-11.11c-6.87,0-12.02-1.58-15.45-4.74-3.44-3.16-5.15-8.36-5.15-15.59v-43.78h-9.62v-10.17h9.62v-18.7h12.33v18.7h19.38v10.17h-19.38Z" style="fill: #fff;"/>
    <path d="M1045.6,908.02c-1.63-1.63-2.44-3.61-2.44-5.96s.81-4.34,2.44-5.96c1.63-1.63,3.61-2.44,5.96-2.44s4.18.81,5.76,2.44c1.58,1.63,2.37,3.62,2.37,5.96s-.79,4.34-2.37,5.96c-1.58,1.63-3.5,2.44-5.76,2.44s-4.34-.81-5.96-2.44ZM1057.52,922.52v74.28h-12.33v-74.28h12.33Z" style="fill: #fff;"/>
    <path d="M1092.02,993.28c-5.65-3.16-10.08-7.66-13.28-13.49-3.21-5.83-4.81-12.58-4.81-20.26s1.65-14.3,4.95-20.13c3.3-5.83,7.79-10.3,13.49-13.42,5.69-3.12,12.06-4.68,19.11-4.68s13.42,1.56,19.11,4.68c5.69,3.12,10.19,7.57,13.49,13.35,3.3,5.78,4.95,12.52,4.95,20.2s-1.69,14.44-5.08,20.26c-3.39,5.83-7.98,10.32-13.76,13.49-5.78,3.16-12.2,4.74-19.25,4.74s-13.26-1.58-18.91-4.74ZM1123.4,984.06c3.88-2.08,7.03-5.19,9.42-9.35,2.39-4.16,3.59-9.22,3.59-15.18s-1.18-11.02-3.52-15.18c-2.35-4.16-5.42-7.25-9.22-9.28-3.8-2.03-7.91-3.05-12.33-3.05s-8.65,1.02-12.4,3.05c-3.75,2.03-6.76,5.13-9.01,9.28-2.26,4.16-3.39,9.22-3.39,15.18s1.11,11.16,3.32,15.32c2.21,4.16,5.17,7.25,8.88,9.28,3.7,2.03,7.77,3.05,12.2,3.05s8.58-1.04,12.47-3.12Z" style="fill: #fff;"/>
    <path d="M1223.43,929.37c5.6,5.47,8.4,13.35,8.4,23.65v43.78h-12.2v-42.02c0-7.41-1.85-13.08-5.56-17.01-3.71-3.93-8.77-5.9-15.18-5.9s-11.68,2.03-15.52,6.1c-3.84,4.07-5.76,9.99-5.76,17.76v41.07h-12.33v-74.28h12.33v10.57c2.44-3.8,5.76-6.73,9.96-8.81,4.2-2.08,8.83-3.12,13.89-3.12,9.03,0,16.35,2.73,21.96,8.2Z" style="fill: #fff;"/>
  </g>
</svg>